<svg width="52" height="62" viewBox="0 0 52 62" fill="none" xmlns="http://www.w3.org/2000/svg">
<path d="M9.15198 61.696C8.29864 61.696 7.33864 61.6107 6.27198 61.44C5.24798 61.2693 4.26664 61.056 3.32798 60.8C2.43198 60.544 1.72798 60.2667 1.21598 59.968C0.91731 59.7973 0.682643 59.6267 0.511977 59.456C0.383977 59.2427 0.319977 58.9013 0.319977 58.432L-2.3365e-05 48.384C-2.3365e-05 47.5307 0.27731 47.104 0.831977 47.104C1.30131 47.104 1.62131 47.488 1.79198 48.256L2.36798 50.688C3.81864 56.7893 6.52798 59.84 10.496 59.84C12.6293 59.84 14.3146 59.136 15.552 57.728C16.832 56.2773 17.472 54.2507 17.472 51.648C17.472 49.1307 16.8106 46.784 15.488 44.608C14.208 42.432 12.1386 40.2773 9.27998 38.144C6.12264 35.8827 3.81864 33.7067 2.36798 31.616C0.91731 29.4827 0.191977 27.2213 0.191977 24.832C0.191977 21.6747 1.27998 19.1573 3.45598 17.28C5.67464 15.36 8.49064 14.4 11.904 14.4C13.184 14.4 14.4213 14.5493 15.616 14.848C16.8106 15.1467 17.792 15.5733 18.56 16.128C18.816 16.2987 19.008 16.4907 19.136 16.704C19.3066 16.9173 19.392 17.1947 19.392 17.536L19.584 27.2C19.584 27.9253 19.3066 28.288 18.752 28.288C18.368 28.288 18.0906 27.9893 17.92 27.392L17.472 25.792C16.5333 22.5067 15.552 20.1173 14.528 18.624C13.5466 17.088 12.1173 16.32 10.24 16.32C8.40531 16.32 6.93331 16.9173 5.82398 18.112C4.75731 19.3067 4.22398 20.992 4.22398 23.168C4.22398 25.0027 4.82131 26.752 6.01598 28.416C7.21064 30.08 9.30131 32.1067 12.288 34.496C15.488 37.0987 17.8133 39.616 19.264 42.048C20.7573 44.4373 21.504 46.9973 21.504 49.728C21.504 52.1173 20.9706 54.208 19.904 56C18.8373 57.792 17.3653 59.2 15.488 60.224C13.6533 61.2053 11.5413 61.696 9.15198 61.696ZM6.14398 10.176C5.41864 10.4747 4.92798 10.3893 4.67198 9.91999C4.37331 9.45066 4.56531 8.98133 5.24798 8.51199L14.464 1.34399C14.8906 1.00266 15.296 0.74666 15.68 0.575993C16.064 0.405326 16.5333 0.319992 17.088 0.319992C17.856 0.319992 18.4533 0.554658 18.88 1.02399C19.3066 1.45066 19.52 1.91999 19.52 2.43199C19.52 2.98666 19.3706 3.47733 19.072 3.90399C18.816 4.28799 18.304 4.65066 17.536 4.99199L6.14398 10.176ZM41.7425 61.696C38.5851 61.696 35.8118 60.7147 33.4225 58.752C31.0758 56.7893 29.2411 54.0373 27.9185 50.496C26.6385 46.912 25.9985 42.688 25.9985 37.824C25.9985 33.1307 26.7025 29.0347 28.1105 25.536C29.5611 21.9947 31.4811 19.264 33.8705 17.344C36.3025 15.3813 38.9905 14.4 41.9345 14.4C43.6838 14.4 45.2198 14.5707 46.5425 14.912C47.8651 15.2107 49.0385 15.616 50.0625 16.128C50.5745 16.4267 50.8305 16.8747 50.8305 17.472L51.0225 27.2C51.0225 27.9253 50.7665 28.288 50.2545 28.288C49.7851 28.288 49.4865 28.0107 49.3585 27.456L48.7185 25.088C47.8225 21.76 46.7771 19.456 45.5825 18.176C44.4305 16.896 43.0438 16.256 41.4225 16.256C38.4358 16.256 35.9398 18.112 33.9345 21.824C31.9718 25.4933 30.9905 30.8267 30.9905 37.824C30.9905 42.6027 31.4811 46.6347 32.4625 49.92C33.4865 53.2053 34.7878 55.68 36.3665 57.344C37.9878 59.008 39.6945 59.84 41.4865 59.84C43.4065 59.84 44.9425 59.2427 46.0945 58.048C47.2891 56.8533 48.2918 54.5493 49.1025 51.136L49.8705 48C49.9985 47.36 50.3398 47.0827 50.8945 47.168C51.3638 47.2533 51.5985 47.616 51.5985 48.256L51.3425 58.624C51.3425 59.2213 51.0651 59.6693 50.5105 59.968C49.4865 60.48 48.2705 60.8853 46.8625 61.184C45.4971 61.5253 43.7905 61.696 41.7425 61.696ZM40.7185 10.368C40.1211 10.368 39.5878 10.1333 39.1185 9.66399L31.6945 1.85599C31.2678 1.38666 31.2038 0.981326 31.5025 0.639992C31.8438 0.213326 32.2705 0.170659 32.7825 0.511993L41.2945 6.33599L49.8705 0.575993C50.4678 0.191992 50.8945 0.213326 51.1505 0.639992C51.4491 0.981326 51.3851 1.38666 50.9585 1.85599L43.5345 9.66399C43.0651 10.1333 42.5318 10.368 41.9345 10.368H40.7185Z" fill="black"/>
</svg>
